<?xml version="1.0" encoding="UTF-8"?>
<svg width="24px" height="24px" viewBox="0 0 24 24" version="1.1" xmlns="http://www.w3.org/2000/svg" xmlns:xlink="http://www.w3.org/1999/xlink">
    <!-- Generator: Sketch 53.2 (72643) - https://sketchapp.com -->
    <title>ic_linkedin</title>
    <desc>Created with Sketch.</desc>
    <defs>
        <linearGradient x1="14.6446136%" y1="14.644643%" x2="85.3551856%" y2="85.355357%" id="linearGradient-1">
            <stop stop-color="#2489BE" offset="0%"></stop>
            <stop stop-color="#0575B3" offset="100%"></stop>
        </linearGradient>
    </defs>
    <g id="pc" stroke="none" stroke-width="1" fill="none" fill-rule="evenodd">
        <g id="recruit" transform="translate(-632.000000, -452.000000)" fill="url(#linearGradient-1)" fill-rule="nonzero">
            <g id="modal" transform="translate(400.000000, 312.000000)">
                <g id="ic_sns" transform="translate(192.000000, 140.000000)">
                    <g id="ic_linkedin" transform="translate(40.000000, 0.000000)">
                        <path d="M11.9999759,0 C5.37252862,0 0,5.37253941 0,12 C0,18.6274606 5.37252862,24 11.9999759,24 C18.6274232,24 24,18.6274606 24,12 C23.9999518,5.37253941 18.6273268,0 11.9999759,0 Z M8.79835968,17.8014499 L6.16364261,17.8014499 L6.16364261,9.2894146 L8.79835968,9.2894146 L8.79835968,17.8014499 Z M7.46844569,8.17470027 C6.60797548,8.17470027 5.91041287,7.47144894 5.91041287,6.60408475 C5.91041287,5.73662416 6.60807188,5.03342103 7.46844569,5.03342103 C8.3288195,5.03342103 9.02638211,5.73662416 9.02638211,6.60408475 C9.02643031,7.47149714 8.3288677,8.17470027 7.46844569,8.17470027 L7.46844569,8.17470027 Z M18.6720059,17.8014499 L16.050013,17.8014499 L16.050013,13.3333387 C16.050013,12.1078663 15.5845214,11.4237976 14.6155104,11.4237976 C13.5609006,11.4237976 13.0099548,12.1362546 13.0099548,13.3333387 L13.0099548,17.8014499 L10.4829592,17.8014499 L10.4829592,9.2894146 L13.0099548,9.2894146 L13.0099548,10.435843 C13.0099548,10.435843 13.7700778,9.02977407 15.5749783,9.02977407 C17.3799269,9.02977407 18.6720059,10.1318606 18.6720059,12.4117522 L18.6720059,17.8014499 L18.6720059,17.8014499 Z" id="Shape"></path>
                    </g>
                </g>
            </g>
        </g>
    </g>
</svg>