<?xml version="1.0" encoding="UTF-8"?>
<svg width="24px" height="24px" viewBox="0 0 24 24" version="1.1" xmlns="http://www.w3.org/2000/svg" xmlns:xlink="http://www.w3.org/1999/xlink">
    <!-- Generator: Sketch 53.2 (72643) - https://sketchapp.com -->
    <title>ic_twitter</title>
    <desc>Created with Sketch.</desc>
    <g id="pc" stroke="none" stroke-width="1" fill="none" fill-rule="evenodd">
        <g id="recruit" transform="translate(-592.000000, -452.000000)" fill="#00ACED" fill-rule="nonzero">
            <g id="modal" transform="translate(400.000000, 312.000000)">
                <g id="ic_sns" transform="translate(192.000000, 140.000000)">
                    <g id="ic_twitter">
                        <path d="M12,0 C18.627417,-1.21743675e-15 24,5.372583 24,12 C24,18.627417 18.627417,24 12,24 C5.372583,24 8.11624501e-16,18.627417 0,12 C-8.11624501e-16,5.372583 5.372583,1.21743675e-15 12,0 Z M16.77888,10.7455851 C16.77888,10.6390251 16.77888,10.5329451 16.77168,10.4273451 C17.2535191,10.0788223 17.6694506,9.64728724 18,9.15294514 C17.5506619,9.35204999 17.0739981,9.48262289 16.58592,9.54030514 C17.0998771,9.23261652 17.4845393,8.74867569 17.66832,8.17854514 C17.1850356,8.46532369 16.6563101,8.6674309 16.10496,8.77614514 C15.3417997,7.96465439 14.1291453,7.76603918 13.1469837,8.2916715 C12.164822,8.81730383 11.657412,9.93646148 11.90928,11.0215851 C9.92970995,10.9223449 8.08534837,9.98734031 6.8352,8.44926514 C6.18173892,9.5742146 6.51551418,11.0133577 7.59744,11.7358251 C7.20563578,11.7242128 6.8223741,11.6185195 6.48,11.4276651 C6.48,11.4377451 6.48,11.4483051 6.48,11.4588651 C6.4803207,12.6308298 7.30644071,13.640242 8.4552,13.8723051 C8.09273741,13.9711564 7.71243868,13.9856064 7.34352,13.9145451 C7.66605501,14.9174681 8.59035579,15.6045214 9.64368,15.6243051 C8.77187282,16.3094725 7.69490857,16.6814224 6.58608,16.6803051 C6.39019371,16.6799291 6.19449795,16.6680687 6,16.6447851 C7.12590526,17.3673179 8.43595843,17.7505693 9.77376,17.7487851 C14.30208,17.7507051 16.77888,13.9990251 16.77888,10.7455851 Z" id="Combined-Shape"></path>
                    </g>
                </g>
            </g>
        </g>
    </g>
</svg>