<?xml version="1.0" encoding="UTF-8" standalone="no"?>
<svg id="svg-logo-ctw" xmlns="http://www.w3.org/2000/svg" xmlns:svg="http://www.w3.org/2000/svg" version="1.1" x="0px" y="0px" width="205" height="205" viewBox="0 0 205 205">
<path d="M0,0V205H205V0Z" style="fill:#fffbd4"/>
<path d="M9.7907,110.12621V147.724H195.208V110.12621Z" style="fill:#fff"/>
<path d="M9.7907,110.12621V147.724H195.208V110.12621Zm59.89544,30.76452-.07234.38686H65.40362l-.0869-.37218-4.58862-14.8349-4.907,14.70259-.093.3698H51.78486l-.07348-.3772-4.68781-21.96448-.66374-3.135h4.85434l.57069,3.135,2.51288,13.78669c1.45363-6.0765,3.63709-13.24784,4.07912-14.87414a2.395,2.395,0,0,1,2.35124-1.7536,2.30164,2.30164,0,0,1,2.27412,1.761c.45307,1.805,2.399,9.07428,3.73742,14.65356l3.04444-16.70848h4.711ZM93.73,140.85887v.4996H86.05655a5.245,5.245,0,0,1-2.96833-.86213,2.601,2.601,0,0,1-1.2234-2.09892v-9.067c0-1.62629,1.88212-2.95378,4.19173-2.95378h2.797v-1.58706h-6.2283v-3.43131h6.91653a5.12594,5.12594,0,0,1,2.96356.8694A2.56318,2.56318,0,0,1,93.73,124.30952Zm22.998-5.07478v1.45238a3.64484,3.64484,0,0,1-1.93479,2.97334,9.28847,9.28847,0,0,1-9.30465,0,3.63593,3.63593,0,0,1-1.93855-2.97334V116.29323h5.41889v4.76368h5.76551v3.47545H108.9689v13.24782h2.34147v-2.48591H116.728Zm19.90228-9.25561v.48993H131.7515v-2.464h-2.10634v13.113h2.10634v-2.459h4.87878v1.91522a3.65993,3.65993,0,0,1-1.73891,2.9538,7.79571,7.79571,0,0,1-8.38121,0,3.66582,3.66582,0,0,1-1.74379-2.9538v-12.033c0-2.29731,2.66474-4.166,5.932-4.166a7.41373,7.41373,0,0,1,4.193,1.21474,3.69346,3.69346,0,0,1,1.7389,2.95128Zm21.8249,14.0855v.50687h-5.42V124.39768h-2.33657v16.72315h-5.42251V116.15855h5.42251v4.76619h3.10314a6.24388,6.24388,0,0,1,3.29173.867,2.58938,2.58938,0,0,1,1.36171,2.11361Zm-71.703-10.78637h2.10144v8.08726H86.75215Z" style="fill:#ffb400"/><path d="M164.52066,74.34383h22.1739a4.1343,4.1343,0,0,1,4.1343,4.1343v14.901a4.1318,4.1318,0,0,1-4.13179,4.13179H164.51939a4.1318,4.1318,0,0,1-4.13179-4.13179h0V78.47687a4.133,4.133,0,0,1,4.133-4.133Z" style="fill:#ffe200"/><path d="M124.13687,74.579h17.79357a4.1318,4.1318,0,0,1,4.13179,4.13179h0V88.3166a4.1318,4.1318,0,0,1-4.13179,4.13179H124.13937a4.1343,4.1343,0,0,1-4.13429-4.13429h0V78.71074A4.13179,4.13179,0,0,1,124.13687,74.579Z" style="fill:#ffe200"/><path d="M85.53852,59.60939H93.7078a4.13191,4.13191,0,0,1,4.13191,4.13191h0V79.38188a4.13179,4.13179,0,0,1-4.13179,4.13179H85.53978a4.133,4.133,0,0,1-4.133-4.133h0V63.74118A4.13179,4.13179,0,0,1,85.53852,59.60939Z" style="fill:#ffe200"/><polygon points="38.749 91.493 32.843 81.263 26.938 71.035 38.749 71.035 50.56 71.035 44.654 81.263 38.749 91.493" style="fill:#ffe200"/><path d="M176.61369,69.63521h22.56214V65.8904H176.61369A2.09288,2.09288,0,0,1,174.52454,63.8V62.62061H191.407V58.8758H174.52454V55.83386H170.7796V63.8A5.84231,5.84231,0,0,0,176.61369,69.63521Z"/><path d="M192.64375,93.548V78.30658a5.84278,5.84278,0,0,0-5.83647-5.83521H165.918v-11.057l3.23292-5.58053h-4.3278l-12.9,22.26218v7.4713l10.25-17.68948V72.884a5.83452,5.83452,0,0,0-3.71546,5.42252V93.548a5.83763,5.83763,0,0,0,4.76618,5.72749l-2.20929,3.811h4.32779l2.148-3.70317h16.128l2.14558,3.70317h4.32529l-2.20679-3.81227A5.8377,5.8377,0,0,0,192.64375,93.548Zm-28.35206,2.0904a2.09282,2.09282,0,0,1-2.08916-2.0904V91.66213H175.6609V87.91734H162.20253v-3.9738H175.6609V80.19861H162.20253v-1.892a2.0929,2.0929,0,0,1,2.08916-2.09041h22.51559a2.09351,2.09351,0,0,1,2.09166,2.09041V93.548a2.09341,2.09341,0,0,1-2.09166,2.0904Z"/><path d="M136.57651,59.8163H120.04922V56.07149h16.52729a4.0212,4.0212,0,0,1,3.68112,6.38635L138.2664,65.8904h3.28685v3.74481h-16.9485V65.8904h9.33386l3.07869-5.30992a1.29774,1.29774,0,0,0,.23275-.6833A4.22471,4.22471,0,0,0,136.57651,59.8163Zm-20.24762,1.51608h-11.188v3.7448h11.188ZM152.3934,99.34173v3.74479H110.25477a4.13935,4.13935,0,0,1-3.79384-6.58222l4.48455-7.742a1.31517,1.31517,0,0,0,.25468-.79967,1.49207,1.49207,0,0,0-.81071-.16164h-.13468a4.13994,4.13994,0,0,1-3.79384-6.58348l4.482-7.73452a1.34682,1.34682,0,0,0,.25719-.79854,1.49215,1.49215,0,0,0-.81071-.16163h-5.2486V68.778h5.24859a4.13855,4.13855,0,0,1,3.79384,6.58348l-4.482,7.73464a1.34764,1.34764,0,0,0-.2572.79843,1.49242,1.49242,0,0,0,.81071.16163h.13468a4.1396,4.1396,0,0,1,3.79635,6.58222l-4.48455,7.742a1.352,1.352,0,0,0-.2572.79955,1.49166,1.49166,0,0,0,.81071.16178H118.178V78.47562a6.00927,6.00927,0,0,1,6.003-6.00425h17.7029a6.01132,6.01132,0,0,1,6.00538,6.00425V99.34173Zm-21.18564-5.25487h-9.285v5.25487h9.285Zm0-8.93346h-9.285v5.18865h9.285Zm0-8.93724H124.181a2.26065,2.26065,0,0,0-2.25819,2.25946v2.933h9.285Zm12.93673,17.87069h-9.19191v5.25487h9.19191Zm0-8.93345h-9.19191v5.18865h9.19191Zm0-6.67778a2.26277,2.26277,0,0,0-2.26058-2.25946h-6.93133v5.19242h9.19191Z"/><path d="M66.57435,91.59605l-6.66059,11.49047h-4.329l6.66072-11.49047Zm26.35472,5.85967c0,.87441-1.15606,1.848-2.81534,1.848H82.48931a7.14842,7.14842,0,0,1-5.42-3.12283L74.41059,91.596H70.08165L73.829,98.05952a10.91818,10.91818,0,0,0,8.66034,4.989h7.62442c3.61753,0,6.5614-2.50925,6.5614-5.59282V93.74151H92.92907ZM66.25471,70.392,55.5639,88.83952V81.37185l8.92983-15.40922H55.5639V62.21782H66.25471v-6.384h3.74492v6.384h9.55069a6.10527,6.10527,0,0,1,5.86456-4.4809h7.95133a6.12029,6.12029,0,0,1,6.11323,6.11323V79.27279A6.12028,6.12028,0,0,1,93.36621,85.386h-2.0267v8.3555H87.5947V85.386H78.68933L69.99964,70.392V85.386H66.25471Zm16.79188,8.8808a2.3708,2.3708,0,0,0,2.36828,2.36842H93.3662a2.37163,2.37163,0,0,0,2.36843-2.36842V63.85015a2.37172,2.37172,0,0,0-2.36843-2.36842H85.41488a2.37087,2.37087,0,0,0-2.36829,2.36842v1.8529h6.40088v3.74481H83.04659v4.22483h6.40089v3.74494H83.04659ZM71.76064,65.96263l7.541,13.01145V65.96263Zm26.471,27.77888h3.74493V84.68929h-3.745Z"/><path d="M12.77382,103.08653h3.74481V73.30414l5.57325-9.61688a5.787,5.787,0,0,0-.18132,1.37525v38.024h3.74606V73.4375a5.53746,5.53746,0,0,0,.54862,1.30666L36.62907,92.74232l-5.9907,10.3442h4.32778l3.82682-6.608,3.82807,6.608h4.32779l-5.992-10.3442L51.382,74.74423a3.9326,3.9326,0,0,0-3.598-6.2405H29.802a4.23448,4.23448,0,0,0-3.838,1.94457,3.51642,3.51642,0,0,0-.30735.73108V65.06251A2.09215,2.09215,0,0,1,27.747,62.97336H53.0756V59.226H27.747a5.80527,5.80527,0,0,0-4.00326,1.61038l2.89987-5.00256H22.31472L5.82418,84.28638v7.47L12.77382,79.7651ZM29.802,72.24853H47.784c.3466,0,.52053.07474.57069.055a1.40215,1.40215,0,0,1-.213.56455L38.793,89.00605,29.44556,72.86813a4.39658,4.39658,0,0,1-.2375-.52166A1.38016,1.38016,0,0,1,29.802,72.24853Z"/></svg>